# xmcd
#
# Track frame offsets:
#  150
#  13159
#  28206
#  67420
#  87294
#  106629
#  124644
#  144643
#  175253
#  192924
#  208952
#  222928
#  249398
#  264288
#
# Disc length: 3776 seconds
#
# Revision: 0
# Processed by: cddbd v1.5.1PL2 Copyright (c) Steve Scherf et al.
# Submitted via: Collectorz.com_Music_Collector 6.9
#
DISCID=d00ebe0e
DTITLE=john stewart, townes van zandt, guy clark peter rowan - The Pathe Hotel, Ireland - Vol. 2 - Disc 1
DYEAR=1991
DGENRE=
TTITLE0=john stewart, townes van zandt, guy clark, peter rowan - Blue Moon of Kentucky
TTITLE1=john stewart, townes van zandt, guy clark, peter rowan - Mariah
TTITLE2=john stewart, townes van zandt, guy clark, peter rowan - The Patriot Game
TTITLE3=john stewart, townes van zandt, guy clark, peter rowan - Free Mexican Airforce
TTITLE4=john stewart, townes van zandt, guy clark, peter rowan - Homegown Tomatoes
TTITLE5=john stewart, townes van zandt, guy clark, peter rowan - Reverend Mr Black
TTITLE6=john stewart, townes van zandt, guy clark, peter rowan - You Win Again
TTITLE7=john stewart, townes van zandt, guy clark, peter rowan - Mystery Train
TTITLE8=john stewart, townes van zandt, guy clark, peter rowan - South Coast
TTITLE9=john stewart, townes van zandt, guy clark, peter rowan - The Carpenter
TTITLE10=john stewart, townes van zandt, guy clark, peter rowan - Wheatfield Lady
TTITLE11=john stewart, townes van zandt, guy clark, peter rowan - White Freightliner Blues
TTITLE12=john stewart, townes van zandt, guy clark, peter rowan - What of Alicia
TTITLE13=john stewart, townes van zandt, guy clark, peter rowan - Good Night Irene
EXTD=
EXTT0=
EXTT1=
EXTT2=
EXTT3=
EXTT4=
EXTT5=
EXTT6=
EXTT7=
EXTT8=
EXTT9=
EXTT10=
EXTT11=
EXTT12=
EXTT13=
PLAYORDER=
